<svg xmlns="http://www.w3.org/2000/svg" width="160" height="132" viewBox="0 0 160 132"><title>折面印纹 · 菜单原创几何母形</title><desc>回转带面通过真实遮挡、三档灰面和疏密有别的透视条纹构成印纹。菜单使用母形的一段局部。独立原创，不是游戏贴图。</desc><g><polygon points="104.88,19.97 85.80,62.34 88.39,63.71 109.17,21.86" fill="#ededed" stroke="#ededed" stroke-width=".32"/></g>
<g><polygon points="100.45,18.20 83.27,61.06 85.80,62.34 104.88,19.97" fill="#ededed" stroke="#ededed" stroke-width=".32"/><path d="M102.68,19.07L84.53,61.69" fill="none" stroke="#666" stroke-width=".8"/></g>
<g><polygon points="109.17,21.86 88.39,63.71 91.02,65.16 113.31,23.84" fill="#ededed" stroke="#ededed" stroke-width=".32"/></g>
<g><polygon points="95.92,16.55 80.81,59.86 83.27,61.06 100.45,18.20" fill="#ededed" stroke="#ededed" stroke-width=".32"/><path d="M98.20,17.36L82.03,60.45" fill="none" stroke="#666" stroke-width=".8"/></g>
<g><polygon points="113.31,23.84 91.02,65.16 93.68,66.70 117.28,25.90" fill="#ededed" stroke="#ededed" stroke-width=".32"/></g>
<g><polygon points="91.29,15.04 78.42,58.75 80.81,59.86 95.92,16.55" fill="#ededed" stroke="#ededed" stroke-width=".32"/><path d="M93.61,15.78L79.60,59.29" fill="none" stroke="#666" stroke-width=".8"/></g>
<g><polygon points="117.28,25.90 93.68,66.70 96.37,68.32 121.07,28.04" fill="#ededed" stroke="#ededed" stroke-width=".32"/></g>
<g><polygon points="86.59,13.67 76.11,57.73 78.42,58.75 91.29,15.04" fill="#ededed" stroke="#ededed" stroke-width=".32"/><path d="M88.95,14.33L77.25,58.23" fill="none" stroke="#666" stroke-width=".8"/></g>
<g><polygon points="121.07,28.04 96.37,68.32 99.07,70.01 124.65,30.24" fill="#ededed" stroke="#ededed" stroke-width=".32"/></g>
<g><polygon points="81.85,12.45 73.89,56.79 76.11,57.73 86.59,13.67" fill="#ededed" stroke="#ededed" stroke-width=".32"/><path d="M84.22,13.04L74.99,57.25" fill="none" stroke="#666" stroke-width=".8"/></g>
<g><polygon points="124.65,30.24 99.07,70.01 101.76,71.79 128.01,32.48" fill="#ededed" stroke="#ededed" stroke-width=".32"/></g>
<g><polygon points="77.08,11.41 71.76,55.94 73.89,56.79 81.85,12.45" fill="#ededed" stroke="#ededed" stroke-width=".32"/><path d="M79.47,11.91L72.81,56.36" fill="none" stroke="#666" stroke-width=".8"/></g>
<g><polygon points="128.01,32.48 101.76,71.79 104.44,73.63 131.15,34.75" fill="#ededed" stroke="#ededed" stroke-width=".32"/></g>
<g><polygon points="72.32,10.54 69.73,55.18 71.76,55.94 77.08,11.41" fill="#ededed" stroke="#ededed" stroke-width=".32"/><path d="M74.70,10.95L70.73,55.55" fill="none" stroke="#666" stroke-width=".8"/></g>
<g><polygon points="131.15,34.75 104.44,73.63 107.10,75.54 134.04,37.04" fill="#ededed" stroke="#ededed" stroke-width=".32"/></g>
<g><polygon points="67.58,9.86 67.81,54.49 69.73,55.18 72.32,10.54" fill="#ededed" stroke="#ededed" stroke-width=".32"/><path d="M69.95,10.18L68.76,54.82" fill="none" stroke="#666" stroke-width=".8"/></g>
<g><polygon points="134.04,37.04 107.10,75.54 109.70,77.51 136.69,39.34" fill="#ededed" stroke="#ededed" stroke-width=".32"/></g>
<g><polygon points="62.89,9.37 66.01,53.89 67.81,54.49 67.58,9.86" fill="#ededed" stroke="#ededed" stroke-width=".32"/><path d="M65.23,9.59L66.90,54.18" fill="none" stroke="#666" stroke-width=".8"/></g>
<g><polygon points="136.69,39.34 109.70,77.51 112.25,79.53 139.08,41.63" fill="#ededed" stroke="#ededed" stroke-width=".32"/></g>
<g><polygon points="58.28,9.08 64.31,53.36 66.01,53.89 62.89,9.37" fill="#ededed" stroke="#ededed" stroke-width=".32"/><path d="M60.57,9.20L65.14,53.61" fill="none" stroke="#666" stroke-width=".8"/></g>
<g><polygon points="139.08,41.63 112.25,79.53 114.73,81.60 141.21,43.90" fill="#ededed" stroke="#ededed" stroke-width=".32"/></g>
<g><polygon points="53.76,9.00 62.73,52.91 64.31,53.36 58.28,9.08" fill="#d5d5d5" stroke="#d5d5d5" stroke-width=".32"/><path d="M56.01,9.02L63.50,53.12" fill="none" stroke="#666" stroke-width=".8"/></g>
<g><polygon points="141.21,43.90 114.73,81.60 117.11,83.72 143.07,46.15" fill="#ededed" stroke="#ededed" stroke-width=".32"/></g>
<g><polygon points="49.37,9.13 61.27,52.53 62.73,52.91 53.76,9.00" fill="#d5d5d5" stroke="#d5d5d5" stroke-width=".32"/><path d="M51.55,9.04L61.98,52.71" fill="none" stroke="#666" stroke-width=".8"/></g>
<g><polygon points="143.07,46.15 117.11,83.72 119.40,85.86 144.65,48.35" fill="#ededed" stroke="#ededed" stroke-width=".32"/></g>
<g><polygon points="45.12,9.47 59.93,52.22 61.27,52.53 49.37,9.13" fill="#d5d5d5" stroke="#d5d5d5" stroke-width=".32"/><path d="M47.22,9.27L60.58,52.37" fill="none" stroke="#666" stroke-width=".8"/></g>
<g><polygon points="144.65,48.35 119.40,85.86 121.56,88.03 145.97,50.50" fill="#ededed" stroke="#ededed" stroke-width=".32"/></g>
<g><polygon points="41.04,10.03 58.71,51.98 59.93,52.22 45.12,9.47" fill="#d5d5d5" stroke="#d5d5d5" stroke-width=".32"/><path d="M43.05,9.72L59.30,52.09" fill="none" stroke="#666" stroke-width=".8"/></g>
<g><polygon points="145.97,50.50 121.56,88.03 123.59,90.22 147.01,52.60" fill="#d5d5d5" stroke="#d5d5d5" stroke-width=".32"/></g>
<g><polygon points="37.14,10.81 57.61,51.81 58.71,51.98 41.04,10.03" fill="#d5d5d5" stroke="#d5d5d5" stroke-width=".32"/><path d="M39.06,10.39L58.14,51.89" fill="none" stroke="#666" stroke-width=".8"/></g>
<g><polygon points="147.01,52.60 123.59,90.22 125.48,92.41 147.78,54.62" fill="#d5d5d5" stroke="#d5d5d5" stroke-width=".32"/></g>
<g><polygon points="33.46,11.80 56.64,51.70 57.61,51.81 37.14,10.81" fill="#d5d5d5" stroke="#d5d5d5" stroke-width=".32"/><path d="M35.27,11.28L57.11,51.75" fill="none" stroke="#666" stroke-width=".8"/></g>
<g><polygon points="147.78,54.62 125.48,92.41 127.20,94.60 148.28,56.57" fill="#d5d5d5" stroke="#d5d5d5" stroke-width=".32"/><path d="M148.06,55.61L126.36,93.51" fill="none" stroke="#666" stroke-width=".8"/></g>
<g><polygon points="30.01,13.02 55.79,51.65 56.64,51.70 33.46,11.80" fill="#d5d5d5" stroke="#d5d5d5" stroke-width=".32"/><path d="M31.71,12.38L56.20,51.66" fill="none" stroke="#666" stroke-width=".8"/></g>
<g><polygon points="148.28,56.57 127.20,94.60 128.75,96.78 148.51,58.43" fill="#d5d5d5" stroke="#d5d5d5" stroke-width=".32"/><path d="M148.43,57.51L128.00,95.69" fill="none" stroke="#666" stroke-width=".8"/></g>
<g><polygon points="26.81,14.44 55.06,51.65 55.79,51.65 30.01,13.02" fill="#d5d5d5" stroke="#d5d5d5" stroke-width=".32"/><path d="M28.38,13.70L55.41,51.64" fill="none" stroke="#666" stroke-width=".8"/></g>
<g><polygon points="148.51,58.43 128.75,96.78 130.10,98.93 148.49,60.21" fill="#d5d5d5" stroke="#d5d5d5" stroke-width=".32"/><path d="M148.53,59.33L129.45,97.86" fill="none" stroke="#666" stroke-width=".8"/></g>
<g><polygon points="23.87,16.08 54.45,51.72 55.06,51.65 26.81,14.44" fill="#d5d5d5" stroke="#d5d5d5" stroke-width=".32"/><path d="M25.31,15.24L54.74,51.68" fill="none" stroke="#666" stroke-width=".8"/></g>
<g><polygon points="148.49,60.21 130.10,98.93 131.26,101.04 148.22,61.88" fill="#d5d5d5" stroke="#d5d5d5" stroke-width=".32"/><path d="M148.39,61.06L130.70,99.99" fill="none" stroke="#666" stroke-width=".8"/></g>
<g><polygon points="21.22,17.92 53.97,51.83 54.45,51.72 23.87,16.08" fill="#d5d5d5" stroke="#d5d5d5" stroke-width=".32"/><path d="M22.51,16.98L54.20,51.77" fill="none" stroke="#666" stroke-width=".8"/></g>
<g><polygon points="131.26,101.04 148.22,61.88 147.70,63.45 132.20,103.11" fill="#d5d5d5" stroke="#d5d5d5" stroke-width=".32"/><path d="M131.75,102.09L147.99,62.68" fill="none" stroke="#666" stroke-width=".8"/></g>
<g><polygon points="18.86,19.97 53.61,52.00 53.97,51.83 21.22,17.92" fill="#d5d5d5" stroke="#d5d5d5" stroke-width=".32"/><path d="M20.00,18.92L53.78,51.91" fill="none" stroke="#666" stroke-width=".8"/></g>
<g><polygon points="132.20,103.11 147.70,63.45 146.95,64.92 132.91,105.12" fill="#d5d5d5" stroke="#d5d5d5" stroke-width=".32"/><path d="M132.58,104.13L147.35,64.20" fill="none" stroke="#666" stroke-width=".8"/></g>
<g><polygon points="16.81,22.21 53.37,52.21 53.61,52.00 18.86,19.97" fill="#d5d5d5" stroke="#d5d5d5" stroke-width=".32"/><path d="M17.80,21.06L53.47,52.10" fill="none" stroke="#666" stroke-width=".8"/></g>
<g><polygon points="132.91,105.12 146.95,64.92 145.97,66.28 133.39,107.07" fill="#d5d5d5" stroke="#d5d5d5" stroke-width=".32"/><path d="M133.18,106.10L146.49,65.61" fill="none" stroke="#666" stroke-width=".8"/></g>
<g><polygon points="15.08,24.63 53.25,52.47 53.37,52.21 16.81,22.21" fill="#d5d5d5" stroke="#d5d5d5" stroke-width=".32"/><path d="M15.91,23.39L53.29,52.33" fill="none" stroke="#666" stroke-width=".8"/></g>
<g><polygon points="133.39,107.07 145.97,66.28 144.78,67.53 133.63,108.93" fill="#d5d5d5" stroke="#d5d5d5" stroke-width=".32"/><path d="M133.55,108.01L145.40,66.92" fill="none" stroke="#666" stroke-width=".8"/></g>
<g><polygon points="13.68,27.22 53.24,52.77 53.25,52.47 15.08,24.63" fill="#d5d5d5" stroke="#d5d5d5" stroke-width=".32"/><path d="M14.34,25.90L53.23,52.61" fill="none" stroke="#666" stroke-width=".8"/></g>
<g><polygon points="133.63,108.93 144.78,67.53 143.39,68.66 133.62,110.69" fill="#d5d5d5" stroke="#d5d5d5" stroke-width=".32"/><path d="M133.66,109.82L144.11,68.11" fill="none" stroke="#666" stroke-width=".8"/></g>
<g><polygon points="12.62,29.98 53.35,53.12 53.24,52.77 13.68,27.22" fill="#d5d5d5" stroke="#d5d5d5" stroke-width=".32"/><path d="M13.11,28.58L53.28,52.94" fill="none" stroke="#666" stroke-width=".8"/></g>
<g><polygon points="133.62,110.69 143.39,68.66 141.81,69.68 133.35,112.36" fill="#d5d5d5" stroke="#d5d5d5" stroke-width=".32"/><path d="M133.52,111.54L142.62,69.18" fill="none" stroke="#666" stroke-width=".8"/></g>
<g><polygon points="11.90,32.90 53.58,53.50 53.35,53.12 12.62,29.98" fill="#d5d5d5" stroke="#d5d5d5" stroke-width=".32"/><path d="M12.22,31.42L53.45,53.30" fill="none" stroke="#666" stroke-width=".8"/></g>
<g><polygon points="133.35,112.36 141.81,69.68 140.05,70.58 132.82,113.90" fill="#b7b7b7" stroke="#b7b7b7" stroke-width=".32"/><path d="M133.12,113.14L140.95,70.14" fill="none" stroke="#666" stroke-width=".8"/></g>
<g><polygon points="11.52,35.96 53.92,53.92 53.58,53.50 11.90,32.90" fill="#d5d5d5" stroke="#d5d5d5" stroke-width=".32"/><path d="M11.67,34.41L53.74,53.71" fill="none" stroke="#666" stroke-width=".8"/></g>
<g><polygon points="132.82,113.90 140.05,70.58 138.12,71.36 132.03,115.33" fill="#b7b7b7" stroke="#b7b7b7" stroke-width=".32"/><path d="M132.46,114.63L139.10,70.99" fill="none" stroke="#666" stroke-width=".8"/></g>
<g><polygon points="11.49,39.14 54.38,54.38 53.92,53.92 11.52,35.96" fill="#d5d5d5" stroke="#d5d5d5" stroke-width=".32"/><path d="M11.46,37.53L54.14,54.15" fill="none" stroke="#666" stroke-width=".8"/></g>
<g><polygon points="132.03,115.33 138.12,71.36 136.05,72.04 130.97,116.61" fill="#b7b7b7" stroke="#b7b7b7" stroke-width=".32"/><path d="M131.53,115.99L137.10,71.72" fill="none" stroke="#666" stroke-width=".8"/></g>
<g><polygon points="11.80,42.44 54.95,54.87 54.38,54.38 11.49,39.14" fill="#d5d5d5" stroke="#d5d5d5" stroke-width=".32"/><path d="M11.60,40.77L54.65,54.62" fill="none" stroke="#666" stroke-width=".8"/></g>
<g><polygon points="130.97,116.61 136.05,72.04 133.84,72.60 129.64,117.75" fill="#b7b7b7" stroke="#b7b7b7" stroke-width=".32"/><path d="M130.33,117.20L134.96,72.33" fill="none" stroke="#666" stroke-width=".8"/></g>
<g><polygon points="12.45,45.83 55.63,55.40 54.95,54.87 11.80,42.44" fill="#d5d5d5" stroke="#d5d5d5" stroke-width=".32"/><path d="M12.08,44.12L55.28,55.13" fill="none" stroke="#666" stroke-width=".8"/></g>
<g><polygon points="129.64,117.75 133.84,72.60 131.51,73.05 128.04,118.73" fill="#b7b7b7" stroke="#b7b7b7" stroke-width=".32"/><path d="M128.87,118.26L132.69,72.84" fill="none" stroke="#666" stroke-width=".8"/></g>
<g><polygon points="13.44,49.32 56.42,55.96 55.63,55.40 12.45,45.83" fill="#d5d5d5" stroke="#d5d5d5" stroke-width=".32"/><path d="M12.91,47.57L56.01,55.68" fill="none" stroke="#666" stroke-width=".8"/></g>
<g><polygon points="128.04,118.73 131.51,73.05 129.06,73.40 126.18,119.55" fill="#b7b7b7" stroke="#b7b7b7" stroke-width=".32"/><path d="M127.14,119.16L130.30,73.24" fill="none" stroke="#666" stroke-width=".8"/></g>
<g><polygon points="14.77,52.87 57.32,56.54 56.42,55.96 13.44,49.32" fill="#ededed" stroke="#ededed" stroke-width=".32"/><path d="M14.06,51.08L56.86,56.25" fill="none" stroke="#666" stroke-width=".8"/></g>
<g><polygon points="126.18,119.55 129.06,73.40 126.53,73.64 124.06,120.19" fill="#b7b7b7" stroke="#b7b7b7" stroke-width=".32"/><path d="M125.15,119.89L127.81,73.53" fill="none" stroke="#666" stroke-width=".8"/></g>
<g><polygon points="16.41,56.47 58.33,57.16 57.32,56.54 14.77,52.87" fill="#ededed" stroke="#ededed" stroke-width=".32"/></g>
<g><polygon points="124.06,120.19 126.53,73.64 123.91,73.78 121.69,120.65" fill="#b7b7b7" stroke="#b7b7b7" stroke-width=".32"/><path d="M122.91,120.44L125.23,73.72" fill="none" stroke="#666" stroke-width=".8"/></g>
<g><polygon points="18.37,60.11 59.45,57.80 58.33,57.16 16.41,56.47" fill="#ededed" stroke="#ededed" stroke-width=".32"/></g>
<g><polygon points="121.69,120.65 123.91,73.78 121.23,73.83 119.07,120.92" fill="#b7b7b7" stroke="#b7b7b7" stroke-width=".32"/><path d="M120.41,120.81L122.58,73.82" fill="none" stroke="#666" stroke-width=".8"/></g>
<g><polygon points="20.62,63.77 60.67,58.46 59.45,57.80 18.37,60.11" fill="#ededed" stroke="#ededed" stroke-width=".32"/></g>
<g><polygon points="119.07,120.92 121.23,73.83 118.49,73.79 116.22,121.00" fill="#b7b7b7" stroke="#b7b7b7" stroke-width=".32"/><path d="M117.67,120.99L119.86,73.82" fill="none" stroke="#666" stroke-width=".8"/></g>
<g><polygon points="23.16,67.44 62.00,59.15 60.67,58.46 20.62,63.77" fill="#ededed" stroke="#ededed" stroke-width=".32"/></g>
<g><polygon points="116.22,121.00 118.49,73.79 115.71,73.66 113.14,120.88" fill="#b7b7b7" stroke="#b7b7b7" stroke-width=".32"/><path d="M114.71,120.96L117.10,73.74" fill="none" stroke="#666" stroke-width=".8"/></g>
<g><polygon points="25.97,71.09 63.44,59.85 62.00,59.15 23.16,67.44" fill="#ededed" stroke="#ededed" stroke-width=".32"/></g>
<g><polygon points="113.14,120.88 115.71,73.66 112.90,73.45 109.85,120.55" fill="#d5d5d5" stroke="#d5d5d5" stroke-width=".32"/><path d="M111.52,120.74L114.31,73.57" fill="none" stroke="#666" stroke-width=".8"/></g>
<g><polygon points="29.03,74.71 64.98,60.58 63.44,59.85 25.97,71.09" fill="#ededed" stroke="#ededed" stroke-width=".32"/></g>
<g><polygon points="109.85,120.55 112.90,73.45 110.08,73.17 106.36,120.02" fill="#d5d5d5" stroke="#d5d5d5" stroke-width=".32"/><path d="M108.13,120.31L111.49,73.32" fill="none" stroke="#666" stroke-width=".8"/></g>
<g><polygon points="32.33,78.29 66.62,61.32 64.98,60.58 29.03,74.71" fill="#ededed" stroke="#ededed" stroke-width=".32"/></g>
<g><polygon points="106.36,120.02 110.08,73.17 107.25,72.82 102.69,119.28" fill="#d5d5d5" stroke="#d5d5d5" stroke-width=".32"/><path d="M104.55,119.68L108.67,73.00" fill="none" stroke="#666" stroke-width=".8"/></g>
<g><polygon points="35.84,81.80 68.36,62.07 66.62,61.32 32.33,78.29" fill="#ededed" stroke="#ededed" stroke-width=".32"/></g>
<g><polygon points="102.69,119.28 107.25,72.82 104.43,72.40 98.86,118.33" fill="#d5d5d5" stroke="#d5d5d5" stroke-width=".32"/><path d="M100.79,118.83L105.84,72.61" fill="none" stroke="#666" stroke-width=".8"/></g>
<g><polygon points="39.55,85.24 70.20,62.83 68.36,62.07 35.84,81.80" fill="#ededed" stroke="#ededed" stroke-width=".32"/></g>
<g><polygon points="98.86,118.33 104.43,72.40 101.63,71.92 94.87,117.17" fill="#d5d5d5" stroke="#d5d5d5" stroke-width=".32"/><path d="M96.88,117.78L103.03,72.17" fill="none" stroke="#666" stroke-width=".8"/></g>
<g><polygon points="43.43,88.58 72.14,63.60 70.20,62.83 39.55,85.24" fill="#ededed" stroke="#ededed" stroke-width=".32"/></g>
<g><polygon points="94.87,117.17 101.63,71.92 98.85,71.39 90.76,115.81" fill="#d5d5d5" stroke="#d5d5d5" stroke-width=".32"/><path d="M92.83,116.52L100.23,71.66" fill="none" stroke="#666" stroke-width=".8"/></g>
<g><polygon points="47.46,91.83 74.17,64.37 72.14,63.60 43.43,88.58" fill="#ededed" stroke="#ededed" stroke-width=".32"/></g>
<g><polygon points="90.76,115.81 98.85,71.39 96.10,70.82 86.54,114.23" fill="#d5d5d5" stroke="#d5d5d5" stroke-width=".32"/><path d="M88.66,115.05L97.47,71.11" fill="none" stroke="#666" stroke-width=".8"/></g>
<g><polygon points="51.61,94.95 76.29,65.14 74.17,64.37 47.46,91.83" fill="#ededed" stroke="#ededed" stroke-width=".32"/></g>
<g><polygon points="86.54,114.23 96.10,70.82 93.40,70.20 82.23,112.46" fill="#d5d5d5" stroke="#d5d5d5" stroke-width=".32"/><path d="M84.40,113.37L94.75,70.51" fill="none" stroke="#666" stroke-width=".8"/></g>
<g><polygon points="55.87,97.93 78.51,65.91 76.29,65.14 51.61,94.95" fill="#ededed" stroke="#ededed" stroke-width=".32"/></g>
<g><polygon points="82.23,112.46 93.40,70.20 90.75,69.55 77.86,110.49" fill="#d5d5d5" stroke="#d5d5d5" stroke-width=".32"/><path d="M80.05,111.50L92.07,69.88" fill="none" stroke="#666" stroke-width=".8"/></g>
<g><polygon points="60.21,100.78 80.80,66.67 78.51,65.91 55.87,97.93" fill="#ededed" stroke="#ededed" stroke-width=".32"/></g>
<g><polygon points="77.86,110.49 90.75,69.55 88.16,68.86 73.45,108.33" fill="#ededed" stroke="#ededed" stroke-width=".32"/><path d="M75.66,109.43L89.45,69.21" fill="none" stroke="#666" stroke-width=".8"/></g>
<g><polygon points="64.60,103.46 83.18,67.42 80.80,66.67 60.21,100.78" fill="#ededed" stroke="#ededed" stroke-width=".32"/></g>
<g><polygon points="73.45,108.33 88.16,68.86 85.64,68.15 69.02,105.98" fill="#ededed" stroke="#ededed" stroke-width=".32"/><path d="M71.24,107.18L86.89,68.51" fill="none" stroke="#666" stroke-width=".8"/></g>
<g><polygon points="69.02,105.98 85.64,68.15 83.18,67.42 64.60,103.46" fill="#ededed" stroke="#ededed" stroke-width=".32"/></g></svg>
